<?xml version="1.0" standalone="no"?>
<!DOCTYPE svg PUBLIC "-//W3C//DTD SVG 20010904//EN"
 "http://www.w3.org/TR/2001/REC-SVG-20010904/DTD/svg10.dtd">
<svg version="1.0" xmlns="http://www.w3.org/2000/svg"
 width="768.000000pt" height="803.000000pt" viewBox="0 0 768.000000 803.000000"
 preserveAspectRatio="xMidYMid meet">
<metadata>
Created by potrace 1.15, written by Peter Selinger 2001-2017
</metadata>
<g transform="translate(0.000000,803.000000) scale(0.100000,-0.100000)"
fill="#000000" stroke="none">
<path d="M3465 7515 c-348 -37 -797 -150 -1084 -272 -369 -158 -734 -395
-1031 -671 -382 -354 -696 -805 -884 -1270 -102 -253 -191 -589 -237 -902 -30
-198 -37 -593 -15 -800 50 -462 193 -948 385 -1315 272 -519 659 -959 1138
-1293 442 -307 847 -475 1420 -586 403 -78 829 -80 1243 -5 455 82 869 233
1221 445 513 308 919 710 1239 1224 211 340 338 663 440 1122 107 483 114 939
19 1403 -117 573 -283 970 -582 1395 -210 298 -429 535 -682 736 -512 406
-1003 627 -1662 749 -286 53 -654 69 -928 40z m323 -428 c9 -3 -8 -5 -38 -6
-30 0 -49 3 -43 7 10 6 10 15 1 40 -12 30 -15 32 -65 32 -41 0 -54 -4 -63 -19
-15 -30 -12 -59 8 -64 9 -3 -3 -5 -27 -6 -41 -1 -43 0 -29 17 9 9 35 69 58
132 23 63 45 119 48 125 3 5 34 -50 69 -122 38 -78 71 -134 81 -136z m332 243
c30 -4 47 -8 38 -9 -22 -1 -25 -16 -33 -138 -7 -102 -7 -103 16 -112 19 -8 12
-10 -36 -10 -51 0 -57 2 -43 12 13 10 18 39 25 130 l8 117 -42 0 -43 0 0 -44
c0 -66 -18 -148 -39 -176 -23 -31 -74 -35 -79 -6 -4 16 0 18 27 13 45 -9 60
19 67 130 6 84 5 91 -12 96 -31 8 86 6 146 -3z m-764 -23 c-16 -12 -16 -19 -6
-77 27 -161 30 -170 53 -171 20 -1 20 -1 -3 -8 -14 -4 -43 -11 -65 -15 -39 -7
-39 -7 -18 9 22 16 23 23 8 101 -4 20 -8 20 -66 11 l-61 -10 7 -45 c9 -63 14
-72 39 -73 16 -1 14 -3 -9 -9 -16 -4 -40 -8 -53 -9 -18 -1 -21 2 -14 15 6 10
2 53 -10 118 -23 126 -24 130 -46 121 -11 -4 -13 -3 -7 3 6 5 33 13 60 17 43
6 48 5 32 -7 -15 -12 -17 -22 -11 -66 6 -51 8 -53 33 -48 14 3 43 8 64 12 28
5 37 10 33 23 -2 9 -7 33 -11 54 -5 29 -10 37 -27 37 -32 0 -16 10 33 19 63
13 65 12 45 -2z m1029 -7 c17 -4 22 -8 13 -9 -22 -1 -27 -10 -37 -65 -7 -36
-6 -46 5 -46 32 0 92 -33 102 -56 20 -42 -12 -93 -59 -97 -36 -2 -132 13 -149
23 -12 8 -11 10 7 10 25 0 24 -2 48 129 19 104 19 109 -2 114 -10 3 -4 5 12 5
17 0 44 -4 60 -8z m347 -91 c-16 -6 -59 -97 -49 -104 10 -9 113 -33 118 -27 3
4 11 27 18 50 11 39 10 45 -6 59 -15 12 -15 14 -2 10 10 -3 36 -11 60 -18 37
-12 40 -14 20 -19 -20 -4 -28 -21 -52 -100 -31 -103 -36 -140 -17 -140 6 0 9
-2 7 -4 -3 -3 -24 0 -48 6 -36 9 -41 13 -29 22 14 10 38 74 38 102 0 6 -25 18
-56 26 -54 15 -56 15 -63 -6 -22 -57 -23 -87 -4 -101 14 -10 4 -10 -40 3 -47
12 -55 17 -39 23 15 6 27 31 46 91 40 134 41 137 20 153 -15 10 -6 10 39 -3
46 -12 55 -17 39 -23z m-1777 -23 c77 -51 68 -197 -15 -238 -75 -38 -150 -8
-184 74 -25 61 -16 111 30 154 48 45 109 49 169 10z m2155 -98 c19 -10 25 -16
13 -13 -24 7 -29 -1 -77 -109 l-25 -57 89 47 c90 47 104 65 78 93 -13 13 42
-6 79 -28 16 -9 16 -10 -3 -11 -17 0 -29 -19 -62 -97 -45 -104 -50 -128 -29
-137 6 -3 1 -3 -13 0 -14 4 -41 15 -60 25 -29 15 -31 18 -11 16 21 -2 29 9 62
81 l38 83 -80 -42 c-105 -55 -116 -65 -92 -91 16 -18 16 -19 -7 -9 -14 5 -41
16 -60 25 -33 14 -33 15 -9 16 23 0 30 10 67 98 45 103 50 127 30 136 -7 3 -2
3 12 0 14 -4 41 -15 60 -26z m-2753 -76 c-16 -17 -14 -25 35 -118 53 -103 63
-115 84 -107 8 3 22 -13 34 -38 l22 -42 -27 22 c-39 30 -64 27 -166 -25 -50
-25 -94 -43 -97 -40 -3 3 0 6 6 6 22 0 12 38 -30 117 -49 93 -65 113 -84 106
-34 -13 -9 9 36 32 43 22 49 23 39 7 -9 -15 -2 -36 40 -120 28 -56 54 -102 56
-102 11 0 105 51 105 57 0 3 -23 50 -52 104 -40 75 -57 99 -73 99 -13 0 -4 10
30 30 59 34 63 36 42 12z m3128 -106 c13 -10 14 -14 4 -11 -19 7 -36 -12 -82
-92 l-36 -62 67 26 c37 14 79 30 94 35 34 12 44 39 22 55 -31 23 -4 14 44 -14
39 -23 43 -29 25 -31 -15 -2 -38 -31 -79 -99 -49 -83 -55 -99 -45 -116 10 -16
4 -14 -39 10 -43 24 -47 28 -27 31 16 2 35 23 65 74 24 39 41 72 39 74 -8 8
-179 -69 -184 -82 -3 -8 0 -21 7 -29 7 -8 -8 -3 -34 11 -54 30 -63 41 -34 40
28 -1 132 166 125 200 -4 22 -3 22 22 9 14 -7 35 -21 46 -29z m-1395 -17 c477
-44 923 -205 1354 -488 253 -165 545 -445 736 -702 174 -235 347 -574 446
-877 89 -273 127 -535 128 -877 0 -334 -33 -584 -110 -833 -161 -520 -408
-928 -781 -1292 -255 -250 -497 -419 -808 -565 -319 -151 -564 -223 -885 -260
-647 -77 -1236 34 -1795 336 -123 67 -315 189 -379 242 l-30 24 57 7 c46 6 64
14 93 42 36 33 38 42 20 85 -6 13 7 20 66 37 135 39 191 46 368 46 185 0 232
-9 415 -74 91 -32 286 -77 420 -97 184 -27 592 -25 778 5 167 26 304 60 457
112 63 21 156 44 205 51 154 20 386 -1 528 -47 48 -16 48 -16 42 -53 -5 -31
-2 -40 22 -63 34 -33 73 -48 122 -48 50 0 64 14 91 90 33 96 92 218 134 279
47 69 47 94 -2 126 -129 85 -557 156 -857 142 -153 -8 -259 -26 -376 -66 -114
-38 -321 -87 -450 -106 -144 -20 -494 -20 -638 0 -127 19 -310 62 -444 105
-53 17 -132 38 -175 46 -373 72 -1102 -43 -1102 -175 0 -10 16 -42 35 -71 53
-78 164 -325 152 -336 -7 -7 -203 174 -295 271 -213 225 -355 429 -497 712
-114 229 -214 505 -250 694 -82 433 -79 880 9 1297 54 252 228 663 388 916
266 418 651 779 1083 1014 384 209 725 313 1165 355 86 9 456 6 560 -4z
m-2093 -205 c57 -37 118 -70 135 -73 l31 -6 -41 -28 c-49 -32 -52 -32 -46 -9
4 11 -5 23 -25 35 -31 18 -31 18 -68 -10 -21 -15 -40 -28 -42 -30 -2 -1 0 -18
3 -37 5 -24 13 -36 26 -38 16 -3 14 -6 -13 -24 l-33 -22 4 28 c3 23 -20 160
-43 253 -4 15 -4 27 0 27 4 0 55 -30 112 -66z m3982 -117 c9 -12 8 -16 -7 -19
-14 -4 -22 -23 -34 -82 -8 -42 -14 -76 -12 -76 2 0 33 14 69 32 45 22 65 38
65 51 0 17 2 17 32 -5 l33 -23 -35 -6 c-19 -3 -77 -27 -129 -53 -103 -50 -139
-56 -165 -27 -14 16 -15 20 -2 30 12 10 17 9 28 -8 7 -12 23 -21 35 -21 18 0
23 8 32 55 6 30 16 80 22 111 6 31 9 65 6 75 -5 19 -4 19 22 -1 15 -10 33 -25
40 -33z m-4316 -6 c-3 -13 18 -44 72 -105 43 -47 80 -86 84 -86 4 0 14 6 22
13 7 6 -4 -7 -26 -30 -36 -39 -74 -62 -45 -28 9 11 8 20 -8 42 -11 15 -28 36
-38 45 -18 16 -21 14 -61 -23 -24 -22 -43 -43 -43 -46 0 -4 16 -24 37 -45 30
-31 39 -35 56 -27 30 17 13 -5 -35 -42 -29 -23 -38 -27 -30 -13 9 16 -1 32
-65 104 -47 53 -83 85 -95 84 -16 -1 -13 5 14 33 38 39 47 41 41 11 -3 -16 6
-33 29 -55 l33 -32 43 35 c23 20 42 40 42 44 0 5 -14 25 -31 45 -24 27 -37 34
-53 30 -15 -5 -9 4 19 29 22 19 41 35 42 36 0 0 -1 -8 -4 -19z m4619 -286 c10
-18 9 -18 -5 -7 -13 11 -21 8 -56 -23 l-41 -37 36 -44 c20 -24 39 -44 43 -44
3 0 23 16 44 36 32 31 36 38 26 57 -9 18 -5 16 21 -8 35 -33 67 -81 38 -57
-14 11 -28 2 -103 -64 -71 -64 -86 -82 -82 -101 4 -23 4 -23 -15 -6 -28 25
-68 83 -45 64 15 -12 22 -9 62 24 l45 37 -42 48 -43 48 -42 -40 c-36 -36 -41
-44 -31 -62 l11 -21 -23 20 c-29 26 -72 86 -47 66 20 -16 21 -14 139 98 50 48
56 57 46 75 -14 28 49 -30 64 -59z m-5049 -137 c-3 -19 11 -35 77 -86 96 -74
105 -79 127 -61 10 8 2 -6 -16 -31 -50 -66 -53 -68 -46 -39 6 23 -1 32 -60 79
-36 29 -68 51 -70 48 -6 -6 37 -171 48 -186 6 -7 19 -11 29 -9 17 5 17 3 -2
-22 -10 -15 -26 -33 -34 -40 -12 -10 -14 -9 -9 7 7 28 -173 168 -193 151 -30
-25 -21 -1 15 41 34 39 38 42 35 20 -5 -26 -3 -28 97 -103 l36 -27 -23 96
c-22 97 -37 122 -61 102 -23 -19 -14 3 18 43 17 21 32 39 33 39 2 0 1 -10 -1
-22z m5436 -357 c27 -45 41 -82 41 -104 0 -44 -28 -71 -69 -65 -27 4 -30 2
-33 -26 -4 -42 -44 -64 -85 -47 -26 11 -103 112 -121 159 -5 15 -4 15 11 3 14
-11 29 -5 118 49 80 50 100 67 96 81 -8 31 -1 23 42 -50z m-5589 -47 c82 -51
130 -66 130 -42 0 6 3 9 6 5 3 -3 -6 -26 -21 -51 -26 -45 -43 -61 -31 -31 5
14 -25 39 -117 94 l-37 23 26 -74 c44 -122 56 -138 88 -110 17 15 16 11 -4
-23 -13 -22 -30 -49 -37 -60 -13 -19 -14 -19 -8 6 6 24 -1 30 -88 82 -92 56
-127 68 -127 45 0 -6 -3 -9 -6 -5 -5 5 43 97 51 97 2 0 1 -8 -2 -19 -4 -14 12
-28 72 -65 41 -25 77 -46 79 -46 2 0 -12 43 -32 95 -36 96 -50 111 -81 83 -8
-7 -1 11 15 40 25 45 30 49 34 30 4 -14 36 -41 90 -74z m5810 -416 c-13 -10
-26 -16 -29 -12 -3 4 0 9 7 11 22 8 7 87 -23 121 -6 6 -95 -37 -95 -45 0 -24
42 -73 62 -73 23 -1 23 -1 -2 -14 -14 -7 -36 -17 -50 -21 -23 -6 -24 -6 -7 7
18 13 18 16 2 56 -10 23 -19 42 -21 42 -12 0 -104 -51 -104 -58 0 -4 11 -25
23 -47 16 -28 33 -43 57 -51 l34 -11 -38 -5 -38 -4 -44 94 c-46 100 -53 118
-30 87 13 -18 18 -17 120 31 92 43 106 52 107 74 0 17 14 -4 46 -70 l45 -94
-22 -18z m-6080 140 c0 -6 -7 -20 -16 -29 -16 -17 -14 -21 18 -57 20 -22 37
-44 39 -50 5 -12 142 20 164 38 18 15 19 9 4 -24 -9 -20 -24 -28 -68 -36 -124
-25 -130 -30 -72 -60 45 -22 81 -26 81 -8 0 6 2 9 5 6 3 -3 -6 -30 -20 -59
-13 -30 -22 -44 -19 -32 4 19 -5 27 -73 61 -132 65 -143 69 -159 47 -22 -29
-16 -4 11 45 13 25 24 37 25 28 0 -16 65 -58 90 -58 23 0 9 58 -25 97 -38 44
-41 54 -25 84 12 21 40 26 40 7z m6190 -347 c20 -64 21 -71 6 -100 -19 -35
-56 -49 -92 -32 -20 9 -32 27 -60 88 0 2 -22 -4 -47 -13 -36 -12 -47 -21 -48
-37 -1 -19 -3 -17 -14 8 -19 45 -29 84 -16 65 9 -13 21 -11 93 13 133 46 151
55 144 72 -3 9 -2 14 3 11 4 -3 18 -37 31 -75z m-6151 -77 c26 -33 26 -33 -1
-123 -17 -58 -23 -69 -29 -53 -6 15 -35 29 -116 56 -101 33 -109 34 -122 18
-12 -15 -13 -14 -7 12 4 16 14 43 22 60 8 17 12 23 9 14 -5 -21 27 -45 72 -54
28 -5 31 -3 42 27 17 48 40 69 77 69 23 0 38 -7 53 -26z m6208 -219 c37 -24
63 -75 63 -122 0 -24 5 -43 12 -45 7 -3 -10 -12 -37 -21 l-49 -17 29 30 c36
38 38 90 4 126 -42 45 -164 28 -203 -28 -33 -46 -17 -105 37 -139 28 -18 29
-20 7 -14 -55 15 -93 84 -82 150 12 81 144 129 219 80z m-6467 -46 c21 0 19
-3 -16 -19 -53 -23 -71 -65 -49 -116 17 -42 68 -67 138 -68 42 -1 52 3 73 27
28 33 32 90 8 127 -14 22 -12 22 10 -3 34 -36 35 -91 3 -138 -54 -81 -162 -80
-231 1 -31 37 -35 94 -10 141 8 17 13 38 10 46 -5 12 -1 14 16 9 13 -3 34 -6
48 -7z m6578 -359 c0 -19 -2 -27 -5 -17 -2 9 -14 17 -26 17 -49 0 -157 -13
-157 -19 0 -3 36 -28 80 -55 80 -48 109 -53 111 -19 2 24 16 -35 18 -71 1 -27
0 -28 -12 -12 -12 17 -21 17 -108 7 -128 -16 -139 -19 -140 -39 -2 -22 -18 57
-17 83 0 17 1 17 5 3 5 -20 51 -22 148 -10 l50 7 -85 53 c-47 28 -91 52 -98
52 -7 0 -17 -10 -22 -22 -8 -20 -9 -19 -10 12 0 19 -3 46 -6 60 -6 24 -6 24 8
6 14 -18 21 -18 124 -7 120 14 124 15 125 39 2 30 17 -31 17 -68z m-6625 -32
c12 -6 27 -18 34 -27 8 -10 12 -12 13 -4 0 7 11 20 25 29 21 14 30 14 54 5 43
-18 52 -49 45 -147 -6 -76 -9 -83 -23 -70 -10 8 -58 18 -121 24 -99 10 -106 9
-122 -9 -16 -19 -17 -19 -13 13 2 18 6 54 9 79 7 59 23 94 50 107 27 14 24 14
49 0z m6657 -401 l0 -113 -32 -2 c-33 -3 -33 -2 -10 13 16 12 22 26 22 52 l0
36 -77 -7 c-42 -3 -95 -6 -119 -6 -32 0 -44 -4 -47 -17 -3 -10 -5 9 -5 42 -1
45 1 54 8 38 8 -21 16 -23 78 -23 38 0 90 3 116 6 45 7 47 8 44 38 -2 21 -11
35 -28 43 -24 12 -24 13 13 13 l37 0 0 -113z m-6491 -231 c1 -35 -1 -38 -12
-22 -12 16 -22 17 -102 9 l-89 -8 80 -52 c89 -59 110 -64 124 -30 7 18 9 13 9
-25 1 -25 4 -55 8 -65 5 -14 2 -13 -13 4 -19 22 -21 22 -124 12 -67 -7 -111
-17 -122 -27 -17 -14 -18 -12 -17 39 1 30 3 46 6 37 5 -20 21 -21 127 -11 l68
6 -83 54 c-46 29 -90 53 -97 53 -7 0 -17 -10 -22 -22 -9 -23 -9 -23 -9 2 -1
14 -4 43 -6 65 -5 33 -4 36 5 17 9 -22 15 -23 58 -18 26 3 78 8 116 11 58 6
69 10 74 28 5 20 6 20 13 1 4 -10 8 -37 8 -58z m6342 -45 c106 -11 114 -11
127 6 12 16 13 7 7 -62 -10 -120 -12 -125 -49 -125 l-31 0 25 13 c19 9 27 24
33 61 4 27 7 50 5 51 -2 2 -27 6 -55 10 l-53 7 0 -46 c0 -32 5 -48 18 -55 14
-9 11 -10 -18 -11 -43 0 -71 15 -42 22 13 4 21 17 25 44 4 21 4 40 2 43 -3 2
-29 6 -59 9 l-53 4 -8 -47 c-5 -40 -3 -53 14 -76 24 -32 23 -34 -14 -17 -23
10 -25 16 -21 47 3 20 8 67 12 106 5 49 9 64 14 49 7 -18 22 -22 121 -33z
m-6302 -301 c0 -16 -17 -42 -49 -75 -71 -71 -65 -89 23 -64 28 7 37 15 38 32
1 15 5 9 14 -18 13 -37 20 -95 8 -67 -7 17 -54 15 -152 -7 -81 -19 -106 -34
-94 -56 4 -5 2 -6 -3 -2 -5 5 -14 31 -20 58 -11 47 -10 49 6 34 17 -15 32 -15
93 2 44 12 2 56 -66 68 -46 9 -67 28 -67 61 0 19 5 25 18 22 12 -3 16 -12 14
-30 -2 -24 2 -28 35 -34 21 -3 47 -12 59 -19 19 -12 24 -8 70 47 27 32 51 69
52 80 3 17 6 18 13 7 5 -8 9 -25 8 -39z m6397 -34 c1 -1 -8 -48 -20 -106 -23
-109 -34 -124 -73 -101 -16 9 -16 10 5 11 24 0 49 38 40 62 -3 8 -51 23 -114
36 -104 21 -110 22 -122 5 -12 -16 -12 -13 -6 22 4 22 10 49 15 60 7 19 8 19
8 -2 1 -15 9 -24 24 -28 165 -37 202 -43 209 -32 13 20 9 49 -9 69 -17 19 -16
19 12 12 17 -4 31 -7 31 -8z m-6151 -876 c15 -30 21 -49 14 -42 -22 20 -44 14
-154 -44 -100 -53 -106 -58 -101 -83 3 -15 -7 -2 -24 29 -30 58 -39 87 -17 56
13 -17 20 -15 128 40 91 47 115 64 117 82 4 29 3 30 37 -38z m5718 -60 c75 -8
113 -8 127 0 26 14 25 12 -7 -46 -24 -41 -29 -45 -31 -26 -2 16 -10 22 -27 22
-13 0 -30 3 -39 6 -11 4 -23 -9 -43 -50 l-27 -56 27 -27 c24 -24 30 -26 47
-15 20 12 20 12 -1 -30 -20 -40 -22 -41 -30 -20 -5 12 -49 73 -99 136 -49 63
-90 117 -90 121 0 3 19 4 43 1 23 -4 90 -11 150 -16z m-5679 -238 c-36 -58
-63 -106 -62 -107 2 -2 57 6 123 16 131 20 126 21 156 -34 9 -16 8 -16 -9 -6
-16 10 -34 2 -126 -61 -86 -57 -107 -76 -103 -91 8 -29 1 -23 -33 25 -35 51
-37 61 -12 45 15 -10 32 -2 105 46 48 32 86 60 84 61 -2 2 -59 -5 -127 -16
-67 -11 -124 -19 -126 -17 -2 2 27 54 65 115 39 62 68 112 65 112 -2 0 -43
-26 -90 -57 -73 -49 -85 -60 -81 -80 4 -21 3 -22 -12 -9 -9 8 -25 30 -35 48
-10 18 -13 27 -5 21 21 -21 38 -16 123 38 105 67 125 85 119 112 -3 14 4 7 20
-17 l25 -40 -64 -104z m5403 32 c4 -11 -2 -23 -17 -34 l-23 -17 27 -45 c14
-25 26 -51 26 -59 0 -11 17 -13 87 -10 49 2 96 8 107 13 14 8 17 7 11 -4 -25
-43 -37 -48 -120 -48 -108 0 -120 -13 -55 -58 41 -28 52 -32 70 -22 18 9 16 3
-12 -39 -36 -55 -48 -63 -41 -28 4 20 -10 33 -95 91 -71 49 -107 67 -121 63
-24 -6 -19 6 24 63 19 24 25 28 21 13 -5 -17 2 -29 38 -58 25 -20 50 -34 56
-30 19 12 11 70 -15 105 -29 39 -32 76 -8 102 20 22 32 23 40 2z m-3602 -19
c44 -8 123 -28 175 -45 503 -162 967 -170 1460 -24 221 65 261 74 401 85 383
30 939 -77 939 -182 0 -15 -7 -19 -38 -19 -57 0 -149 29 -131 42 11 7 9 8 -6
4 -14 -4 -38 5 -68 24 -26 16 -49 30 -51 30 -2 0 -7 -26 -11 -57 -8 -69 -61
-283 -72 -294 -5 -5 -38 1 -73 12 -149 46 -388 61 -552 35 -48 -8 -147 -35
-220 -59 -263 -89 -575 -133 -883 -123 -289 8 -504 45 -745 126 -160 53 -253
70 -397 70 -111 0 -278 -23 -366 -50 -34 -11 -65 -16 -70 -11 -11 11 -54 178
-68 261 -16 97 -12 94 -68 60 -31 -20 -55 -28 -66 -23 -14 5 -16 3 -10 -7 6
-10 4 -12 -9 -7 -9 4 -15 3 -12 -2 7 -10 -69 -31 -113 -31 -23 0 -31 5 -31 18
0 98 480 200 870 186 74 -3 171 -12 215 -19z m-781 -215 c9 -52 33 -142 52
-200 l35 -105 -34 -31 c-36 -33 -100 -50 -137 -36 -15 6 -32 35 -59 103 -20
52 -60 138 -88 192 l-51 97 31 0 c41 0 158 42 194 68 15 11 31 18 34 14 3 -4
13 -50 23 -102z m3678 23 l58 -6 -19 -31 c-35 -57 -108 -210 -131 -276 -13
-36 -28 -71 -33 -77 -24 -31 -153 2 -176 46 -9 15 -5 39 19 109 16 48 40 140
52 203 l23 114 75 -38 c50 -25 94 -40 132 -44z m-4343 -108 c40 -47 69 -89 66
-95 -3 -5 -15 -15 -26 -21 -19 -10 -20 -9 -9 11 12 23 7 34 -42 92 l-23 27
-45 -39 -45 -39 34 -35 c26 -27 40 -34 55 -30 19 6 19 5 7 -10 -8 -9 -28 -26
-45 -38 -17 -12 -25 -15 -18 -8 19 21 14 42 -18 79 l-29 34 -45 -39 c-25 -22
-45 -43 -46 -49 0 -5 16 -27 35 -47 29 -32 40 -38 77 -38 l43 -1 -34 -14 c-18
-8 -38 -15 -45 -14 -9 0 -95 95 -134 149 -11 15 -10 17 11 13 33 -6 202 140
202 174 -1 13 0 23 0 23 1 0 34 -38 74 -85z m4814 25 c-4 -16 8 -33 53 -74
132 -118 133 -119 149 -106 33 27 21 3 -20 -42 l-43 -48 2 31 c1 25 -7 38 -39
64 l-41 34 -43 -50 -43 -51 33 -34 c40 -41 64 -50 87 -32 19 15 -40 -63 -61
-81 -12 -9 -13 -7 -10 12 4 20 -10 37 -77 98 -100 91 -108 95 -134 79 -11 -7
-1 10 23 39 23 28 44 51 46 51 1 0 0 -10 -2 -22 -3 -17 7 -34 36 -62 22 -22
42 -38 44 -35 2 2 23 26 47 52 l44 48 -45 39 c-34 29 -48 36 -61 29 -10 -6
-18 -6 -18 -2 0 6 70 83 76 83 1 0 0 -9 -3 -20z m-4583 -266 c0 -3 -10 -2 -23
1 -19 5 -31 -3 -62 -36 l-38 -43 49 -43 c26 -24 51 -43 55 -43 4 0 23 18 43
40 32 36 35 43 25 62 -8 15 5 9 40 -21 28 -24 49 -46 47 -49 -3 -3 -13 1 -21
8 -14 11 -22 7 -56 -26 -23 -21 -64 -65 -92 -97 -45 -52 -49 -61 -38 -79 11
-17 10 -18 -6 -9 -10 5 -34 26 -53 46 -27 29 -30 35 -12 26 21 -11 27 -8 63
31 21 24 39 45 39 48 0 3 -20 26 -45 50 l-45 44 -41 -39 c-29 -29 -39 -46 -36
-62 6 -32 -3 -29 -47 16 -34 35 -36 38 -14 34 20 -4 38 11 107 86 62 67 82 96
78 111 -4 16 4 12 39 -16 24 -20 44 -38 44 -40z m4341 -31 c24 -26 23 -27 -25
-7 -13 5 -97 -60 -96 -75 1 -3 16 -24 34 -45 l33 -39 38 28 c31 24 36 33 31
57 -5 27 -5 27 29 -11 32 -35 51 -71 23 -43 -19 19 -38 14 -72 -16 l-33 -28
43 -49 42 -49 33 28 c45 38 60 65 53 99 -8 38 3 34 20 -8 l15 -35 -42 -39
c-128 -116 -150 -132 -125 -92 10 17 1 31 -72 115 -81 93 -95 104 -116 89 -6
-5 26 27 70 69 45 43 84 78 87 78 3 0 16 -12 30 -27z m-271 -188 c-16 -20 -12
-30 67 -141 61 -85 70 -94 93 -89 l25 7 -25 -19 c-46 -35 -95 -66 -82 -53 19
21 14 48 -14 86 l-26 34 -39 -40 c-57 -58 -85 -55 -135 15 -31 44 -44 55 -61
52 -13 -2 -23 -3 -23 -2 0 2 23 19 50 39 46 33 67 37 38 8 -9 -9 -5 -21 18
-53 39 -56 57 -66 86 -50 13 7 30 21 37 33 11 18 8 26 -21 70 -30 44 -36 49
-63 43 -27 -5 -24 -1 25 34 60 44 69 48 50 26z m-3434 -251 c57 -30 104 -58
104 -60 0 -10 -31 -64 -36 -64 -3 0 -2 5 1 11 12 19 -4 54 -32 71 l-28 16 -64
-114 c-52 -94 -61 -117 -51 -129 19 -23 0 -18 -55 15 -34 21 -42 29 -24 25 25
-6 30 0 89 106 l63 113 -23 18 c-28 22 -39 23 -69 1 l-24 -16 19 31 c10 18 20
32 22 32 2 0 51 -25 108 -56z m3157 -7 c13 -15 17 -31 14 -54 -5 -30 -3 -33
19 -33 53 0 82 -69 49 -117 -9 -12 -53 -43 -99 -68 -81 -44 -118 -58 -81 -31
17 12 16 18 -35 112 -64 120 -77 136 -104 128 -35 -9 0 13 89 57 87 43 116 45
148 6z m-324 -133 c14 -31 9 -41 -9 -19 -7 8 -20 15 -28 15 -23 0 -102 -31
-102 -41 0 -18 40 -99 49 -99 6 0 26 8 46 17 26 13 35 23 35 42 l1 26 13 -25
c7 -14 17 -36 21 -50 7 -22 6 -23 -9 -11 -14 12 -23 12 -57 1 -22 -8 -42 -17
-45 -21 -6 -10 43 -119 53 -118 4 0 28 10 53 22 34 17 48 31 57 57 l11 35 7
-27 c4 -16 5 -34 2 -42 -3 -7 -47 -30 -99 -51 -111 -44 -129 -51 -105 -35 25
16 22 30 -29 151 -40 95 -48 108 -72 111 -20 2 -4 12 73 45 55 23 105 42 111
42 6 1 16 -11 23 -25z m-2492 -337 c16 -17 16 -18 -7 -8 -85 33 -93 38 -71 44
17 4 21 13 21 45 0 39 -1 40 -56 62 l-56 23 -26 -27 c-23 -23 -25 -29 -14 -46
15 -24 9 -24 -43 0 -30 14 -35 19 -18 19 13 1 65 43 135 110 l113 109 3 -156
c2 -129 5 -159 19 -175z m350 188 c36 -24 48 -63 29 -102 -21 -44 -76 -55
-138 -29 -13 6 -18 -3 -29 -50 -12 -52 -11 -58 7 -71 17 -14 16 -14 -16 -8
-19 4 -48 13 -65 20 -26 11 -27 13 -8 14 23 1 21 -3 68 154 25 84 26 90 10
107 -17 19 -16 19 50 0 37 -11 78 -26 92 -35z m1829 42 c-17 -12 -16 -20 16
-136 25 -95 38 -125 53 -132 11 -4 17 -8 14 -8 -4 -1 -92 -23 -197 -51 -204
-54 -226 -58 -197 -37 17 13 17 19 -15 137 -27 98 -38 124 -54 128 -15 4 -8 9
25 18 58 18 79 18 55 1 -17 -12 -16 -19 15 -135 30 -107 36 -122 55 -122 29 0
84 20 84 31 0 5 -14 61 -32 125 -25 89 -36 118 -52 123 -17 7 -16 9 11 14 17
3 44 9 59 13 26 6 27 5 11 -7 -16 -13 -16 -20 13 -129 16 -63 30 -118 30 -122
0 -19 110 4 110 23 0 5 -14 61 -32 125 -26 94 -36 118 -53 122 -15 5 -9 9 25
18 63 17 78 17 56 1z m-1502 -229 c16 -74 37 -146 48 -161 l20 -28 -49 6 c-48
7 -84 25 -49 25 16 0 18 6 13 37 -8 47 -12 50 -73 58 -50 6 -52 6 -72 -27 -20
-31 -20 -34 -5 -45 15 -12 14 -13 -8 -12 -32 1 -80 17 -56 18 11 1 49 48 103
131 47 72 88 130 92 130 4 0 20 -60 36 -132z m391 87 c29 -10 41 -11 46 -3 9
14 23 -53 16 -79 -3 -15 -5 -14 -15 8 -14 35 -59 69 -89 69 -87 0 -140 -116
-98 -216 27 -65 114 -80 169 -29 14 13 26 21 26 16 0 -4 -10 -17 -22 -29 -94
-87 -238 -19 -238 113 0 73 38 126 107 151 47 16 49 16 98 -1z m370 -121 c32
-69 69 -134 82 -143 l23 -19 -31 -6 c-18 -3 -42 -6 -55 -6 -21 0 -23 2 -12 19
9 14 8 26 -2 50 -12 29 -16 31 -65 31 -57 0 -69 -8 -81 -54 -5 -22 -3 -32 11
-43 17 -11 13 -13 -30 -13 -41 0 -46 2 -32 13 9 6 37 71 62 142 25 72 48 136
50 143 10 27 24 7 80 -114z"/>
<path d="M2830 7187 c-36 -18 -51 -55 -44 -102 8 -51 39 -111 63 -125 57 -30
121 11 121 78 0 50 -43 136 -76 150 -31 15 -33 15 -64 -1z"/>
<path d="M3595 6854 c-16 -2 -66 -9 -110 -15 -409 -55 -837 -288 -1122 -609
-92 -104 -199 -255 -259 -367 -21 -39 -48 -76 -61 -82 -20 -9 -23 -7 -31 32
-9 37 -10 38 -11 12 -1 -17 8 -134 19 -260 11 -127 22 -259 25 -295 7 -90 15
-186 20 -245 2 -27 16 -203 30 -390 15 -187 28 -346 30 -352 3 -7 12 -13 21
-13 13 0 15 7 10 35 l-7 35 39 0 c47 0 102 10 102 19 0 3 -5 13 -10 21 -8 12
-12 11 -30 -8 -28 -30 -100 -32 -100 -2 0 11 5 20 10 20 6 0 10 11 10 25 0 15
-6 25 -14 25 -8 0 -15 14 -18 35 -3 24 0 35 9 35 19 0 17 69 -2 76 -8 4 -15
11 -15 16 0 6 7 7 16 4 8 -3 12 -2 9 4 -3 6 -12 10 -19 10 -10 0 -15 29 -20
103 -4 56 -9 116 -11 132 -2 17 -7 72 -11 123 -6 82 -5 94 11 106 13 9 15 17
8 32 -5 10 -7 30 -3 44 5 21 7 18 14 -21 3 -25 4 -53 0 -62 -7 -20 9 -23 24
-4 7 8 6 19 -3 37 -8 14 -14 35 -15 47 0 12 -4 25 -10 28 -5 3 -10 19 -10 35
0 17 -9 38 -21 49 -23 21 -39 101 -20 101 6 0 17 -11 23 -25 20 -44 28 -27 28
58 0 60 4 89 16 106 12 17 13 26 5 34 -6 6 -11 16 -11 22 0 5 7 1 15 -9 13
-17 23 -18 95 -13 103 8 127 -2 142 -59 7 -24 15 -41 20 -38 11 7 10 -24 -2
-47 -6 -11 -7 -19 -1 -19 5 0 12 12 15 28 4 15 9 35 13 46 3 12 1 16 -6 12
-10 -7 -16 12 -12 41 1 8 -5 10 -14 7 -18 -7 -20 7 -4 23 9 9 7 11 -9 6 -18
-4 -20 -1 -15 19 5 23 5 23 -10 3 -16 -20 -16 -20 -17 2 0 16 -4 21 -16 16 -9
-3 -20 0 -25 8 -7 11 -9 10 -9 -6 -1 -18 -2 -18 -10 3 -5 12 -14 22 -19 22 -6
0 -8 -6 -5 -14 7 -17 -25 -30 -41 -16 -8 6 -27 7 -51 2 -35 -7 -39 -11 -37
-36 1 -20 -2 -26 -12 -23 -15 6 -29 -19 -18 -36 4 -7 0 -8 -11 -4 -13 5 -17 2
-15 -11 3 -35 -1 -53 -12 -47 -6 4 -7 19 -4 36 4 17 2 35 -3 42 -5 7 -13 44
-16 82 -4 39 -9 94 -12 123 l-6 52 48 22 c31 13 83 24 139 29 l90 7 -92 -2
c-51 -1 -93 -1 -93 1 0 10 117 195 167 266 32 44 108 131 168 192 276 279 605
454 1000 532 72 14 139 18 330 18 221 -1 250 -3 366 -28 451 -96 852 -351
1119 -710 80 -109 152 -226 145 -238 -3 -3 8 -9 24 -11 l29 -4 -62 101 c-245
399 -595 682 -1029 830 -184 62 -323 85 -547 90 -107 2 -208 1 -225 -1z"/>
<path d="M3600 6418 c-413 -46 -810 -290 -1041 -640 -49 -74 -59 -85 -70 -72
-7 8 -26 24 -43 36 -25 16 -23 13 10 -18 59 -57 73 -76 100 -141 13 -32 24
-51 24 -42 0 9 -13 42 -29 73 l-29 57 51 77 c136 210 319 375 548 496 306 161
703 199 1047 100 252 -73 493 -225 664 -419 92 -103 181 -233 175 -255 -3 -8
-8 -24 -12 -35 -4 -11 5 0 20 25 37 62 61 87 129 131 33 22 55 39 50 39 -15 0
-86 -50 -127 -89 -31 -29 -40 -33 -47 -21 -86 151 -258 335 -425 452 -273 193
-644 285 -995 246z"/>
<path d="M5229 5713 c-1 -1 -2 -9 -3 -15 -1 -7 -9 -12 -18 -12 -10 1 -16 -3
-15 -10 1 -6 -10 -10 -28 -9 -25 2 -27 1 -10 -7 11 -5 15 -9 9 -9 -6 -1 -10
-22 -10 -50 1 -27 4 -44 8 -38 5 7 8 4 8 -9 0 -12 7 -24 15 -28 8 -3 15 -1 15
5 0 6 9 8 21 4 15 -5 19 -4 15 4 -5 8 10 11 47 11 61 0 67 6 67 71 0 34 -4 41
-32 54 -23 10 -25 13 -8 9 14 -4 31 -9 38 -11 7 -3 12 3 12 16 0 19 -5 21 -44
19 -24 -2 -42 -6 -39 -10 2 -4 -3 -5 -11 -2 -9 3 -14 9 -11 13 2 4 -2 8 -10 8
-8 0 -16 -2 -16 -4z"/>
<path d="M4971 5394 c-2 -37 58 -141 108 -187 l49 -46 -34 -22 c-19 -11 -32
-25 -29 -29 3 -5 -3 -14 -12 -20 -15 -9 -14 -10 7 -4 23 6 24 5 11 -10 -13
-15 -13 -19 0 -27 11 -7 11 -9 1 -9 -9 0 -11 -7 -7 -20 5 -15 3 -18 -9 -14
-12 4 -16 0 -16 -16 0 -12 -4 -18 -10 -15 -6 3 -13 -2 -17 -12 -6 -16 -8 -15
-14 7 -11 41 -10 58 7 74 8 9 11 16 6 16 -20 0 -47 -43 -48 -78 -4 -60 23
-112 41 -82 3 6 13 10 21 10 9 0 27 14 41 30 13 17 31 30 39 30 9 0 12 5 9 10
-11 18 7 10 26 -12 l19 -21 0 27 c0 31 26 86 40 86 14 0 12 -13 -2 -30 -7 -8
-4 -7 8 3 11 9 23 16 25 15 2 -2 -5 5 -16 14 -11 10 -27 18 -35 18 -29 1 -52
27 -49 57 3 23 -5 37 -39 68 -48 43 -88 105 -107 168 -8 24 -14 33 -14 21z"/>
<path d="M1756 5361 c-10 -11 -26 -50 -36 -88 -26 -97 -31 -108 -42 -91 -5 8
-6 2 -2 -17 9 -39 9 -35 -1 -69 -8 -30 6 -47 35 -43 16 3 20 9 20 33 0 12 -5
11 -21 -7 l-20 -24 12 25 c7 14 12 26 11 28 -7 9 1 20 18 25 11 3 20 13 20 22
0 10 5 13 12 9 7 -4 8 -3 4 4 -4 7 -16 12 -28 12 -16 0 -18 3 -9 14 7 8 22 12
34 10 l22 -5 -22 10 c-13 6 -23 14 -23 19 0 17 13 22 28 9 13 -9 14 -9 8 1 -4
6 -3 12 3 12 5 0 13 -9 16 -21 6 -17 9 -18 23 -7 13 11 15 11 10 -2 -3 -8 1
-21 8 -28 17 -16 17 -11 2 25 -6 15 -12 30 -13 33 -10 30 -19 37 -36 33 -16
-5 -18 -8 -7 -14 7 -5 8 -9 2 -9 -6 0 -13 3 -17 6 -9 9 23 55 34 48 5 -3 6 3
2 12 -5 13 -3 15 8 10 8 -4 6 -1 -3 7 -10 8 -14 18 -10 22 4 5 1 5 -6 1 -7 -4
-10 -11 -7 -16 3 -5 1 -11 -4 -15 -6 -3 -8 5 -5 20 5 30 2 31 -20 6z"/>
<path d="M5639 5264 c-21 -34 -23 -36 -65 -29 -37 5 -43 4 -38 -9 3 -9 10 -16
15 -16 5 0 9 -8 10 -17 0 -11 3 -13 6 -5 5 12 23 7 23 -7 0 -5 -14 -24 -31
-42 -27 -29 -30 -31 -26 -11 3 12 1 20 -4 16 -5 -3 -9 -12 -9 -20 0 -8 -5 -14
-11 -14 -7 0 -9 9 -6 23 5 20 5 20 -7 5 -7 -10 -16 -15 -19 -11 -4 3 -1 13 6
21 10 13 8 14 -11 8 -18 -6 -21 -4 -15 11 3 10 15 29 25 42 10 13 14 28 10 35
-4 7 -8 2 -10 -11 -2 -13 -9 -23 -17 -23 -8 0 -15 -18 -20 -46 -3 -25 -13 -48
-20 -51 -8 -2 -17 -13 -20 -23 -3 -11 -12 -17 -20 -14 -7 3 -16 1 -20 -5 -3
-6 -15 -11 -26 -11 -10 0 -19 -6 -19 -12 0 -9 -3 -9 -9 1 -8 12 -12 12 -25 2
-8 -7 -13 -18 -10 -25 6 -15 -20 -68 -29 -60 -3 4 -4 20 -1 38 4 29 4 30 -6 7
-6 -14 -16 -31 -22 -38 -8 -11 -7 -12 6 -7 20 8 21 -3 1 -23 -9 -8 -25 -13
-35 -10 -11 3 -18 1 -14 -4 26 -43 369 118 433 204 7 10 24 22 37 27 23 9 34
30 15 30 -19 0 -23 58 -6 84 10 14 15 26 12 26 -3 0 -15 -16 -28 -36z"/>
<path d="M3610 5161 c0 -23 15 -19 -267 -66 -116 -19 -241 -35 -277 -35 l-66
0 0 -45 0 -45 -169 0 -170 0 -3 -27 c-2 -16 -8 -27 -15 -26 -7 2 -13 -3 -13
-11 0 -20 -116 -252 -146 -291 l-25 -33 25 -62 26 -62 -28 -22 c-14 -11 -30
-20 -35 -18 -13 4 -38 -26 -27 -33 5 -3 10 -3 10 2 0 4 4 1 10 -7 5 -8 10 -12
12 -10 2 3 10 18 19 34 9 16 29 36 45 45 35 19 45 32 36 46 -3 5 1 5 9 -2 12
-9 14 -3 16 38 2 36 -2 49 -12 49 -7 0 -16 -6 -18 -12 -3 -7 -6 -1 -6 14 -1
22 2 25 21 20 19 -5 21 -2 15 26 -5 25 -3 32 9 32 12 0 15 -7 12 -31 -4 -28
-3 -30 20 -24 17 4 23 2 19 -7 -2 -7 -12 -12 -21 -12 -21 2 -21 -34 -1 -100 9
-29 13 -64 9 -83 -6 -32 -5 -33 28 -33 33 0 34 1 30 32 -5 30 -3 32 12 19 9
-7 16 -22 16 -32 0 -11 7 -19 15 -19 8 0 15 -4 15 -9 0 -14 -28 -21 -32 -9 -6
18 -28 -1 -28 -23 0 -10 7 -19 15 -19 8 0 15 4 15 9 0 5 7 12 16 15 8 3 13 2
10 -3 -3 -4 1 -17 9 -27 19 -25 19 -34 -1 -34 -10 0 -14 6 -11 15 5 11 -7 14
-63 14 -57 0 -68 -3 -63 -16 3 -8 9 -11 12 -6 10 14 41 15 45 1 3 -7 7 -26 10
-41 4 -15 10 -26 15 -23 4 3 8 -23 7 -58 -1 -35 1 -63 4 -61 3 2 5 -17 4 -43
l-2 -47 1094 3 1094 2 0 -75 0 -75 -1090 0 c-720 0 -1090 -3 -1090 -10 0 -5 0
-13 0 -17 0 -5 492 -10 1092 -13 l1093 -5 6 -75 c3 -41 6 -64 7 -50 3 39 25
93 50 124 25 33 28 72 8 101 -7 11 -17 35 -21 53 -5 23 -12 32 -27 32 -19 0
-20 4 -14 46 3 26 6 60 6 75 0 19 5 29 15 29 17 0 19 -14 5 -39 -7 -14 -2 -32
18 -71 15 -29 35 -61 45 -72 9 -10 17 -26 18 -35 0 -11 7 -3 16 17 8 19 20 42
27 50 7 8 20 36 28 62 13 41 13 50 1 68 -13 19 -12 20 16 20 21 0 31 -5 31
-15 0 -8 5 -15 10 -15 6 0 10 7 10 15 0 11 11 15 43 15 39 0 43 -3 43 -22 -1
-35 32 -35 64 0 15 17 25 33 22 36 -5 6 18 10 47 9 9 -1 10 2 3 9 -7 7 -21 5
-43 -6 -38 -19 -47 -20 -31 -4 15 15 15 67 1 88 -8 12 -10 8 -8 -15 3 -70 18
-65 -185 -65 l-185 0 6 38 c3 20 13 46 22 57 11 14 7 12 -12 -4 -36 -33 -39
-97 -4 -104 19 -4 18 -4 -5 -6 -27 -1 -28 1 -28 47 -1 37 -3 43 -11 30 -14
-25 -32 -22 -68 12 -30 29 -41 48 -21 35 6 -3 11 2 11 12 1 10 3 41 4 68 2 28
3 53 4 57 1 4 17 10 36 14 l35 6 2 122 2 121 3 -115 c2 -63 8 -119 12 -123 12
-12 13 173 2 248 -9 64 3 107 34 118 17 7 20 44 6 79 -5 13 -12 35 -15 51 l-6
27 -195 0 -195 0 0 45 0 45 -66 0 c-36 0 -163 16 -282 35 -279 46 -262 42
-262 65 0 19 -7 20 -160 20 -151 0 -160 -1 -160 -19z"/>
<path d="M5698 5119 c-42 -21 -57 -57 -39 -95 6 -14 11 -38 11 -53 0 -16 8
-39 18 -51 26 -32 68 -21 77 18 4 20 16 33 38 43 43 19 45 51 7 112 -34 53
-51 57 -112 26z"/>
<path d="M1792 5020 c-11 -12 -22 -34 -25 -48 -3 -15 -12 -45 -20 -67 -8 -22
-17 -65 -20 -96 -5 -52 -4 -56 13 -52 15 4 21 18 26 64 5 43 11 59 22 59 12 0
14 -11 8 -70 -5 -59 -4 -70 9 -70 8 0 15 -9 15 -20 0 -16 -5 -19 -24 -14 -26
6 -36 -13 -36 -78 0 -38 -16 -60 -25 -35 -3 7 -2 39 3 70 7 43 6 60 -4 68 -8
7 -14 7 -19 -1 -3 -5 -3 -10 1 -10 3 0 -1 -12 -11 -26 -9 -15 -13 -24 -7 -20
19 11 12 -116 -8 -141 -9 -12 -20 -20 -24 -18 -3 3 -4 2 -1 -2 3 -3 0 -12 -7
-20 -8 -10 -8 -12 4 -8 20 8 20 4 19 -163 -1 -47 8 -91 33 -167 41 -122 44
-129 90 -184 29 -35 34 -46 25 -62 -5 -11 -7 -24 -4 -29 3 -6 -1 -10 -10 -10
-9 0 -27 -7 -41 -16 -19 -13 -22 -20 -13 -30 14 -17 60 -18 58 -1 -3 25 1 38
11 32 6 -3 10 -11 10 -16 0 -6 -5 -7 -12 -3 -6 4 -8 3 -5 -4 8 -11 24 -10 102
9 55 13 78 26 83 48 2 11 -7 13 -41 8 -35 -5 -48 -3 -61 12 -22 25 -39 124
-31 190 3 31 7 79 9 106 3 55 36 129 64 144 9 5 28 9 42 10 54 1 61 3 48 19
-11 13 -14 12 -22 -1 -8 -12 -14 -5 -33 35 -13 27 -23 54 -23 60 0 5 23 35 50
66 46 52 50 60 50 108 0 72 -13 100 -75 164 -29 30 -56 66 -60 80 -4 17 -3 21
3 11 6 -8 12 -9 16 -3 10 16 -13 25 -29 12 -11 -9 -25 0 -68 45 -45 46 -51 57
-38 65 9 5 13 11 9 15 -3 3 -15 -3 -26 -15z"/>
<path d="M5551 5020 c-80 -27 -83 -32 -75 -133 7 -85 7 -86 28 -72 11 8 34 15
52 15 23 0 34 6 42 25 7 14 23 30 36 36 21 10 23 16 19 53 -6 43 -28 96 -41
95 -4 0 -31 -9 -61 -19z"/>
<path d="M5835 4963 c-50 -27 -91 -77 -84 -104 3 -13 5 -35 2 -49 -9 -65 75
-76 115 -14 25 38 28 79 9 141 l-12 41 -30 -15z"/>
<path d="M5342 4947 c-12 -13 -22 -28 -22 -33 0 -6 -11 -21 -25 -34 -28 -26
-32 -65 -11 -89 13 -16 11 -85 -3 -77 -3 2 -4 -17 -1 -42 l5 -47 3 40 c7 84
69 111 229 100 75 -5 103 -11 103 -20 0 -7 7 -127 15 -266 l16 -254 33 -35
c41 -43 52 -75 34 -97 -11 -14 -11 -16 4 -11 19 8 32 -28 22 -59 -6 -16 -5
-16 8 2 12 15 13 23 4 37 -9 14 -6 22 13 40 13 13 21 18 17 11 -3 -6 -1 -15 5
-18 6 -5 9 0 7 11 -1 11 9 35 23 54 15 19 28 44 31 55 5 22 -13 45 -34 45 -8
0 -6 -5 5 -11 22 -13 23 -33 1 -25 -9 4 -22 2 -29 -4 -9 -8 -14 -6 -19 5 -3 9
-2 14 2 11 4 -2 8 3 9 12 1 10 3 22 5 27 3 11 -4 15 -24 15 -9 0 -8 -3 2 -10
13 -8 13 -11 1 -22 -10 -10 -12 -10 -7 0 4 6 2 12 -4 12 -6 0 -9 -8 -6 -17 3
-11 -4 -30 -18 -48 -20 -25 -26 -28 -40 -16 -18 15 -22 36 -5 25 7 -4 9 0 6
12 -4 11 -13 136 -22 279 -9 143 -18 265 -20 272 -2 6 2 19 10 29 12 18 13 17
14 -6 0 -14 0 -48 1 -77 0 -54 9 -60 48 -30 14 11 16 73 2 82 -5 3 -10 26 -10
51 0 37 -4 46 -24 56 -33 14 -55 4 -67 -32 -9 -23 -18 -31 -47 -36 -21 -3 -47
-12 -59 -20 -12 -8 -42 -14 -65 -13 -24 0 -38 3 -31 5 7 3 17 20 23 39 10 29
8 41 -15 89 -30 64 -56 73 -93 33z"/>
<path d="M5083 4918 c-21 -18 -47 -38 -58 -44 -17 -10 -20 -21 -18 -73 2 -50
0 -61 -13 -61 -10 0 -14 6 -10 15 3 8 2 24 -2 34 -6 16 -10 17 -23 8 -16 -12
-39 -49 -39 -63 0 -4 32 -4 71 -1 53 4 78 12 94 27 11 11 26 20 31 20 6 0 18
6 28 13 16 11 17 17 7 36 -9 17 -9 29 0 56 10 27 10 37 0 49 -19 22 -26 20
-68 -16z"/>
<path d="M5871 4751 c-13 -13 -34 -21 -55 -21 -48 0 -58 -17 -50 -86 8 -64 15
-74 56 -74 15 0 30 -4 33 -10 3 -5 15 -10 26 -10 20 0 23 11 19 73 -1 28 4 45
20 62 26 27 23 52 -7 72 -19 13 -24 12 -42 -6z"/>
<path d="M2414 4346 c-4 -11 -19 -16 -53 -17 -44 0 -147 -15 -126 -18 6 0 11
-22 12 -47 2 -39 -1 -45 -15 -39 -12 4 -14 3 -6 -5 6 -6 36 -10 70 -8 l58 3
-3 53 c-1 32 2 52 8 52 6 0 11 -19 11 -41 l0 -42 33 33 c24 22 33 40 31 57 -3
32 -12 40 -20 19z"/>
<path d="M2440 4291 c0 -6 -16 -27 -36 -48 -37 -40 -87 -118 -90 -141 -2 -8 0
-11 4 -8 3 3 16 -4 29 -16 21 -19 23 -20 23 -4 0 28 83 195 98 195 7 1 15 -6
18 -14 9 -22 32 -18 36 7 4 27 28 36 28 11 0 -11 7 -20 15 -20 9 0 15 10 15
24 0 22 -3 23 -70 23 -38 0 -70 -4 -70 -9z"/>
<path d="M2665 4166 c-31 -47 -99 -52 -161 -11 -30 19 -31 6 -5 -52 21 -46 45
-63 88 -63 54 0 89 39 99 110 7 46 1 50 -21 16z"/>
<path d="M5110 4085 c0 -55 -11 -108 -31 -147 -14 -28 -11 -104 5 -117 8 -7
18 -26 21 -43 4 -17 13 -45 20 -62 13 -30 13 -28 10 30 -2 33 0 66 5 74 5 7 3
21 -3 31 -9 14 -9 21 0 30 6 6 9 18 6 26 -4 10 -8 11 -13 3 -4 -6 -7 27 -6 73
0 65 3 84 13 80 7 -3 13 1 13 8 0 7 3 9 6 6 4 -4 1 -13 -5 -21 -8 -10 -9 -16
-1 -21 13 -8 12 -10 15 53 2 46 1 50 -11 35 -13 -17 -15 -17 -29 1 -14 18 -15
15 -15 -39z"/>
<path d="M1980 4076 c0 -52 19 -133 35 -146 10 -8 17 -6 29 12 9 12 16 30 16
39 0 9 7 20 16 23 13 5 14 3 6 -6 -14 -17 -12 -89 2 -81 6 3 32 20 58 37 45
30 47 33 48 79 0 26 -3 47 -7 47 -16 0 -28 -16 -28 -35 0 -11 -8 -21 -19 -23
-15 -3 -18 1 -14 22 5 24 3 26 -26 25 -17 -2 -50 7 -73 20 l-43 21 0 -34z"/>
<path d="M5512 4052 c4 -19 -16 -63 -38 -83 -14 -13 -24 -34 -24 -51 0 -30 31
-68 55 -68 8 0 22 -18 31 -40 18 -45 48 -60 73 -36 12 13 16 36 16 99 0 100
-25 177 -59 178 -11 0 -29 2 -38 4 -10 2 -17 0 -16 -3z"/>
<path d="M5250 3986 c0 -24 3 -53 7 -63 6 -15 9 -13 14 12 l6 30 11 -27 c8
-20 19 -27 44 -30 l33 -3 -31 -17 c-21 -12 -34 -28 -39 -50 l-7 -33 -9 33 c-5
17 -12 32 -14 32 -3 0 -5 -29 -5 -65 0 -58 2 -65 20 -65 27 0 60 35 60 63 0
14 11 28 30 39 55 31 50 110 -9 123 -19 4 -35 16 -43 33 -9 18 -22 28 -41 30
-26 3 -27 1 -27 -42z"/>
<path d="M2524 3968 c3 -29 8 -143 11 -253 12 -464 16 -572 22 -604 4 -23 1
-36 -8 -42 -12 -8 -12 -11 1 -19 8 -5 10 -10 4 -10 -6 0 -21 9 -34 20 -13 11
-28 20 -34 19 -6 0 -6 -3 2 -6 17 -7 15 -23 -3 -23 -8 0 -15 6 -15 13 0 8 -3
7 -9 -3 -6 -8 -7 -27 -4 -42 6 -30 -8 -37 -31 -16 -11 11 -11 15 1 23 8 6 11
18 7 28 -6 17 -7 17 -20 0 -11 -15 -15 -15 -23 -4 -4 7 -11 9 -14 4 -8 -13 3
-54 13 -48 4 3 13 -2 20 -11 10 -12 11 -17 1 -27 -10 -9 -15 -8 -25 6 -7 9
-19 17 -26 17 -8 0 -11 9 -7 29 4 20 1 33 -10 43 -10 8 -14 8 -10 1 9 -15 -9
-27 -25 -16 -7 4 -22 6 -32 4 -14 -2 -17 1 -12 15 5 13 4 14 -7 6 -11 -9 -15
27 -25 201 -7 117 -12 252 -12 301 l0 89 -22 -20 c-43 -39 -88 -54 -179 -60
-78 -5 -89 -4 -89 11 0 10 -8 16 -25 16 -14 0 -25 -5 -25 -12 0 -20 -12 0 -20
34 -7 29 -8 26 -9 -24 -1 -41 5 -67 18 -89 17 -28 18 -35 6 -58 -16 -32 -3
-65 23 -57 11 3 24 -5 35 -20 16 -22 17 -30 7 -55 -13 -30 -24 -36 -35 -19 -3
6 -10 10 -14 10 -14 0 -31 -51 -25 -76 3 -13 -1 -42 -10 -66 -13 -31 -14 -43
-5 -49 9 -5 8 -12 -5 -25 -12 -11 -15 -24 -11 -38 9 -27 9 -45 0 -72 -5 -15
-2 -23 12 -28 29 -12 113 -28 176 -33 63 -5 67 -12 37 -60 -23 -38 -29 -40
-62 -14 l-24 20 7 -52 c4 -29 23 -106 43 -172 20 -66 37 -134 38 -150 1 -17
-9 -65 -22 -108 -34 -116 -12 -157 87 -157 53 0 88 16 102 47 19 41 14 171 -9
231 -25 65 -36 203 -26 323 l7 85 56 -7 c30 -4 56 -9 57 -11 2 -2 15 -52 30
-111 37 -145 42 -204 22 -310 -23 -120 -11 -139 95 -153 30 -3 83 -19 119 -34
82 -36 128 -44 163 -31 51 20 48 75 -6 112 l-32 23 23 -25 c22 -25 29 -63 13
-73 -4 -3 -13 5 -19 19 -6 13 -20 29 -32 35 -18 9 -23 7 -38 -19 -17 -31 -36
-39 -46 -22 -3 5 3 20 14 34 11 14 20 29 20 34 0 5 -20 19 -44 30 -41 20 -45
21 -59 5 -8 -9 -18 -27 -21 -39 -5 -16 -15 -23 -32 -23 -30 0 -31 23 -4 68
l20 32 -61 0 c-57 0 -60 1 -57 23 2 18 11 23 48 27 l45 5 -3 145 c-3 133 -1
148 18 178 17 27 24 31 35 22 8 -6 15 -30 17 -53 3 -37 4 -34 8 20 3 33 2 59
-1 57 -4 -2 -14 5 -24 16 -25 28 -31 26 -61 -20 l-27 -40 -37 33 c-20 17 -36
33 -35 35 2 2 171 31 187 32 3 0 9 -8 11 -17 4 -15 5 -15 6 2 1 14 16 26 46
40 47 21 57 42 30 69 -16 15 -21 31 -7 22 4 -2 9 11 10 30 2 27 -1 34 -15 34
-11 0 -14 3 -7 8 21 14 34 48 22 60 -6 6 -9 39 -6 80 2 39 0 68 -4 66 -4 -3
-8 14 -8 37 0 33 3 39 13 30 19 -15 28 -2 16 21 -6 11 -17 17 -24 14 -10 -3
-14 11 -17 57 -2 34 0 68 5 75 6 8 5 12 -2 12 -6 0 -11 7 -11 15 0 8 5 15 10
15 6 0 10 -5 10 -12 0 -6 3 -8 7 -4 5 4 0 14 -10 21 -15 11 -19 29 -20 99 -1
47 -5 86 -9 86 -4 0 -6 38 -5 85 2 47 0 85 -5 85 -4 0 -8 6 -8 13 0 12 -39 37
-57 37 -3 0 -3 -24 1 -52z m-464 -428 c12 -8 15 -44 16 -220 l0 -210 -36 0
-37 0 0 213 c0 142 4 214 11 219 15 10 28 10 46 -2z m54 -717 c2 -16 8 -68 11
-118 3 -49 8 -109 12 -133 l5 -43 23 21 c13 12 25 17 29 12 3 -5 -6 -20 -19
-32 -30 -28 -31 -37 -5 -45 21 -7 66 -63 57 -72 -3 -3 -18 4 -33 16 -38 30
-44 27 -44 -22 0 -36 6 -49 35 -77 25 -24 32 -37 24 -44 -7 -8 -16 -3 -31 17
-27 37 -40 34 -33 -7 6 -28 4 -35 -13 -40 -16 -6 -72 7 -72 16 0 2 4 18 9 36
10 34 -3 44 -27 20 -8 -8 -12 -9 -12 -1 0 6 13 22 29 35 19 15 30 36 34 61 5
35 5 36 -15 26 -22 -12 -19 -1 9 32 12 14 12 17 -2 22 -8 4 -15 11 -15 18 0 6
7 8 15 5 13 -5 15 0 10 27 -2 17 -12 73 -20 122 -19 114 -19 134 2 157 22 25
31 23 37 -9z"/>
<path d="M5897 3843 c-9 -27 -18 -66 -19 -88 -2 -41 29 -165 41 -165 12 0 34
102 34 154 -1 28 -9 72 -20 99 l-19 47 -17 -47z"/>
<path d="M5424 3847 c-3 -9 -14 -19 -25 -22 -10 -4 -29 -28 -42 -55 -22 -46
-22 -48 -5 -70 10 -12 18 -31 18 -41 0 -12 10 -21 25 -25 14 -3 30 -14 35 -24
9 -16 13 -15 45 15 19 19 35 37 35 40 0 4 7 22 16 40 14 31 14 36 -6 74 -11
23 -26 41 -32 41 -6 0 -22 10 -35 21 -20 19 -23 20 -29 6z"/>
<path d="M5010 3812 c0 -7 -12 -25 -26 -39 -14 -14 -32 -45 -39 -69 -12 -41
-11 -47 14 -96 14 -29 34 -59 44 -66 9 -7 17 -23 17 -35 1 -24 36 40 69 124
18 45 17 47 -2 85 -11 21 -25 44 -32 49 -7 6 -19 21 -29 35 -9 13 -16 19 -16
12z"/>
<path d="M5566 3711 c-9 -10 -19 -34 -23 -54 -4 -27 -11 -37 -30 -41 -13 -4
-29 -18 -35 -32 -11 -24 -9 -29 17 -50 44 -36 44 -36 79 -78 29 -35 34 -38 55
-26 23 12 23 15 19 114 -7 139 -42 211 -82 167z"/>
<path d="M5271 3648 c0 -59 16 -113 19 -68 l2 25 7 -25 c6 -20 13 -25 37 -23
27 2 28 1 10 -12 -11 -8 -23 -15 -28 -15 -4 0 -8 -15 -8 -32 l-1 -33 -14 30
-13 30 -1 -35 c-1 -57 11 -110 25 -110 18 0 51 45 59 79 3 16 15 37 26 47 36
32 20 104 -23 104 -11 0 -24 16 -37 45 -14 32 -26 45 -40 45 -19 0 -21 -6 -20
-52z"/>
<path d="M5130 3649 c0 -13 -10 -49 -21 -79 -32 -82 -35 -117 -12 -148 11 -15
23 -38 26 -52 26 -110 29 -110 31 -3 2 70 9 94 23 79 4 -4 2 -15 -4 -25 -9
-14 -9 -21 0 -30 9 -9 9 -16 0 -30 -9 -14 -9 -21 0 -30 8 -8 9 -16 1 -29 -8
-12 -8 -22 0 -34 8 -13 7 -21 -1 -29 -9 -9 -9 -16 0 -30 9 -14 9 -21 -1 -31
-9 -9 -12 -7 -12 9 0 37 -19 35 -26 -2 -3 -19 -10 -38 -15 -41 -18 -11 -10
-90 12 -118 17 -22 23 -46 27 -116 5 -94 14 -122 32 -104 8 8 7 14 -5 24 -19
16 -19 60 0 86 19 25 19 38 0 30 -20 -7 -20 27 0 44 11 9 12 16 2 31 -8 13 -8
22 -1 29 12 12 -3 60 -18 60 -5 0 -8 9 -8 20 0 11 3 20 8 20 15 0 30 48 18 60
-7 7 -7 16 1 29 9 14 9 21 0 30 -9 9 -9 16 0 30 9 14 9 21 0 30 -9 9 -9 16 0
30 9 14 9 21 0 30 -8 8 -9 16 0 29 8 14 7 23 -3 37 -16 21 -17 20 -38 -20
l-16 -30 0 28 c0 15 -5 27 -11 27 -8 0 -8 4 -1 13 20 23 34 178 18 194 -3 3
-6 -5 -6 -18z"/>
<path d="M5435 3511 c-3 -11 -15 -23 -26 -26 -10 -4 -19 -15 -19 -26 0 -11 -7
-36 -15 -55 -14 -34 -13 -38 5 -61 11 -14 20 -32 20 -39 0 -8 8 -14 17 -14 9
0 30 -12 45 -27 15 -15 28 -21 28 -14 0 6 11 22 23 35 13 13 31 45 39 71 15
44 15 48 -6 86 -11 21 -30 42 -41 45 -11 4 -30 15 -42 26 -21 20 -21 20 -28
-1z"/>
<path d="M3060 3449 c-56 -29 -97 -56 -99 -66 -4 -20 27 -83 41 -83 5 0 18 5
29 10 18 10 19 6 19 -175 l0 -185 75 0 75 0 0 263 c0 262 -3 290 -34 285 -6
-1 -54 -23 -106 -49z m125 -228 l0 -254 -58 -1 -57 -1 0 192 0 192 -33 -19
-33 -19 -18 34 c-11 19 -17 37 -14 40 14 15 185 94 198 92 13 -2 15 -38 15
-256z"/>
<path d="M3486 3480 c-88 -27 -126 -131 -78 -216 7 -13 3 -29 -14 -62 -45 -84
-21 -187 52 -233 49 -30 131 -32 187 -5 81 40 115 171 64 247 -22 33 -22 34
-5 68 64 126 -58 245 -206 201z m152 -30 c62 -38 77 -125 32 -183 -18 -22 -18
-26 -4 -38 47 -39 58 -127 23 -189 -42 -75 -146 -102 -229 -60 -81 42 -103
170 -40 238 l20 21 -20 33 c-24 40 -26 105 -4 137 43 61 155 82 222 41z"/>
<path d="M3881 3468 c-24 -13 -52 -37 -62 -54 l-18 -30 30 -37 c22 -27 38 -37
58 -37 25 0 29 4 35 40 10 61 46 49 46 -15 0 -44 -10 -55 -51 -55 l-39 0 0
-56 0 -57 34 6 c50 8 71 -11 70 -63 -2 -78 -58 -94 -76 -22 -13 51 -46 47 -86
-11 l-34 -49 32 -33 c37 -38 110 -61 162 -50 119 25 187 137 145 238 -8 18
-21 38 -31 46 -15 13 -15 15 1 33 13 15 18 37 18 83 0 54 -4 68 -25 90 -53 58
-136 71 -209 33z m192 -36 c28 -29 32 -39 32 -86 0 -43 -5 -60 -23 -79 l-23
-24 30 -31 c27 -27 31 -37 31 -88 0 -72 -25 -115 -84 -143 -71 -35 -165 -23
-209 27 -18 20 -18 21 7 61 30 48 51 52 61 14 15 -61 64 -74 90 -23 34 65 9
130 -51 130 -32 0 -34 2 -34 35 0 30 3 35 24 35 37 0 56 26 56 75 0 79 -51 97
-70 24 -12 -44 -28 -49 -57 -16 -33 36 -35 45 -17 72 28 43 62 56 137 52 61
-2 70 -6 100 -35z"/>
<path d="M4396 3474 c-3 -8 -44 -79 -90 -157 -76 -128 -84 -147 -85 -194 l-1
-53 80 0 80 0 0 -60 0 -60 75 0 75 0 0 60 c0 57 1 60 25 60 24 0 25 2 25 70 0
68 -1 70 -25 70 l-25 0 0 140 0 140 -64 0 c-49 0 -65 -4 -70 -16z m124 -144
l0 -140 24 0 c22 0 23 -4 24 -55 0 -52 -1 -55 -24 -55 -23 0 -24 -3 -24 -57
l0 -58 -60 0 -60 0 0 58 0 57 -83 0 -82 0 5 53 c4 43 20 78 89 195 l84 142 54
0 53 0 0 -140z"/>
<path d="M5020 3418 c0 -6 -8 -21 -18 -32 -10 -12 -23 -42 -30 -67 -12 -49 -5
-67 63 -176 l19 -31 26 52 c51 101 46 168 -18 232 -37 37 -42 40 -42 22z"/>
<path d="M5592 3373 c-5 -10 -12 -34 -16 -55 -5 -25 -17 -44 -42 -63 -45 -35
-44 -69 5 -102 19 -13 45 -39 58 -58 25 -37 53 -45 73 -20 17 20 7 212 -13
270 -16 45 -49 59 -65 28z"/>
<path d="M5295 3328 c-3 -7 -1 -40 4 -73 5 -38 9 -49 11 -30 l2 30 10 -27 c7
-21 17 -28 36 -29 27 0 27 0 5 -11 -17 -8 -23 -20 -24 -47 l-1 -36 -11 28
c-16 40 -31 33 -23 -10 3 -21 6 -53 6 -70 0 -26 4 -33 20 -33 21 0 60 52 60
81 0 9 14 30 31 48 41 43 37 82 -9 97 -25 8 -38 21 -52 52 -19 42 -55 58 -65
30z"/>
<path d="M4914 2975 c1 -279 2 -300 19 -301 12 -1 13 -1 2 3 -12 4 -15 22 -15
91 l1 87 24 -30 c37 -46 78 -85 84 -79 3 2 -7 17 -22 32 -60 59 -87 100 -87
131 0 17 4 31 9 31 5 0 12 16 16 36 3 21 13 47 22 60 10 16 13 36 9 61 -15
103 -19 116 -37 120 -10 3 -20 17 -22 32 -2 14 -3 -109 -3 -274z"/>
<path d="M5471 3131 c-6 -11 -20 -23 -31 -26 -13 -4 -20 -15 -20 -31 0 -14 -7
-35 -15 -48 -14 -21 -14 -25 1 -37 9 -7 20 -23 25 -36 5 -13 17 -23 27 -23 10
0 27 -9 36 -19 17 -18 18 -18 40 4 12 12 27 24 33 26 5 2 19 24 30 49 l20 46
-32 37 c-18 20 -37 37 -42 37 -6 0 -22 9 -36 20 -26 20 -26 20 -36 1z"/>
<path d="M5030 3015 c-7 -14 -17 -25 -21 -25 -5 0 -17 -20 -28 -45 l-20 -45
24 -37 c14 -20 25 -40 25 -44 0 -5 6 -9 14 -9 8 0 18 -9 21 -20 6 -20 25 -28
25 -10 0 5 14 25 30 43 17 19 30 44 30 55 0 12 4 23 9 26 14 9 -22 70 -61 105
l-35 30 -13 -24z"/>
<path d="M5324 2985 c-4 -9 -3 -41 2 -73 6 -46 9 -51 12 -27 5 30 5 30 11 5 5
-20 14 -26 41 -28 l35 -4 -32 -13 c-26 -11 -33 -20 -34 -42 0 -25 -1 -26 -9
-8 -7 17 -9 16 -9 -10 -1 -61 11 -105 29 -105 22 0 36 17 46 55 4 17 20 46 36
65 15 19 28 44 28 56 0 26 -30 54 -57 54 -14 0 -23 9 -28 28 -13 51 -58 81
-71 47z"/>
<path d="M5774 2815 l-17 -45 -91 4 c-50 2 -76 2 -58 -1 l32 -4 -6 -82 c-4
-45 -10 -102 -13 -127 -5 -32 0 -72 16 -135 13 -49 22 -106 21 -125 -3 -31 -6
-35 -34 -38 l-31 -3 -7 66 c-4 36 -9 78 -12 94 -5 25 -3 28 17 26 13 -1 16 0
6 2 -15 4 -18 12 -15 39 3 23 0 34 -9 34 -10 0 -13 28 -13 116 l0 116 -38 -49
c-21 -26 -58 -65 -81 -86 -43 -38 -138 -90 -151 -82 -4 3 -10 44 -14 92 -11
131 -14 143 -42 143 l-24 0 20 -20 c17 -17 20 -33 20 -121 0 -99 0 -100 -22
-95 -13 3 0 -5 27 -19 28 -14 62 -25 78 -25 20 0 27 -5 27 -20 0 -12 -7 -20
-17 -20 -32 0 -92 20 -108 36 -8 9 -15 11 -15 4 0 -6 7 -13 15 -16 14 -6 13
-8 -2 -21 -17 -13 -16 -13 3 -4 20 10 24 5 49 -52 15 -34 29 -63 30 -65 2 -2
21 2 44 8 35 9 41 14 41 38 -1 15 -7 38 -15 52 -8 14 -14 44 -15 67 0 46 2 48
83 56 28 2 37 -1 38 -13 0 -9 3 -10 5 -3 4 8 13 7 35 -5 23 -14 29 -24 29 -52
0 -24 -6 -39 -20 -47 -49 -31 -60 -104 -24 -160 28 -44 176 -23 208 29 14 23
-59 189 -80 181 -8 -3 -14 1 -14 11 0 9 6 16 14 16 15 0 26 21 26 49 0 13 15
20 70 29 39 7 96 13 128 13 78 2 117 11 117 29 0 8 -10 16 -22 18 -16 2 -21 9
-20 29 2 23 -3 28 -38 35 -22 5 -43 15 -48 23 -4 8 -16 15 -27 15 -10 0 -22 9
-25 20 -3 11 -11 20 -16 20 -6 0 -7 -4 -4 -10 3 -5 1 -10 -4 -10 -19 0 -12 22
9 27 14 4 20 14 20 34 0 43 -16 35 -36 -16z"/>
<path d="M2532 2673 c-3 -90 -30 -83 325 -83 l315 0 55 -50 c103 -94 247 -155
428 -180 246 -35 543 48 680 189 l39 41 287 0 287 0 -11 25 -12 25 -279 0
-278 0 -66 -61 c-143 -134 -384 -203 -620 -179 -183 20 -329 81 -436 182 l-61
58 -322 0 -322 0 -4 43 c-3 41 -4 41 -5 -10z"/>
<path d="M5120 2388 c-86 -49 -130 -87 -130 -113 0 -17 18 -15 172 22 l107 25
-15 30 c-9 17 -23 43 -32 58 l-17 27 -85 -49z"/>
<path d="M2515 2111 c-39 -16 -60 -51 -60 -98 0 -37 5 -49 28 -69 38 -33 95
-33 135 1 88 74 4 209 -103 166z m71 -9 c35 -23 44 -94 19 -142 -13 -24 -22
-30 -50 -30 -42 0 -65 29 -65 83 0 60 25 97 65 97 11 0 25 -4 31 -8z"/>
</g>
</svg>
